<?xml version="1.0" encoding="UTF-8" standalone="no"?>
<!DOCTYPE svg PUBLIC "-//W3C//DTD SVG 1.1//EN"
 "http://www.w3.org/Graphics/SVG/1.1/DTD/svg11.dtd">
<!-- Generated by graphviz version 2.38.0 (20140413.2041)
 -->
<!-- Title: classes_No_Name Pages: 1 -->
<svg width="2509pt" height="680pt"
 viewBox="0.00 0.00 2508.50 680.00" xmlns="http://www.w3.org/2000/svg" xmlns:xlink="http://www.w3.org/1999/xlink">
<g id="graph0" class="graph" transform="scale(1 1) rotate(0) translate(4 676)">
<title>classes_No_Name</title>
<polygon fill="white" stroke="none" points="-4,4 -4,-676 2504.5,-676 2504.5,4 -4,4"/>
<!-- 0 -->
<g id="node1" class="node"><title>0</title>
<polygon fill="none" stroke="black" points="0,-249 0,-333 176,-333 176,-249 0,-249"/>
<text text-anchor="middle" x="88" y="-317.8" font-family="Times,serif" font-size="14.00">Camera</text>
<polyline fill="none" stroke="black" points="0,-310 176,-310 "/>
<text text-anchor="start" x="8" y="-294.8" font-family="Times,serif" font-size="14.00">camera : USBCamera</text>
<polyline fill="none" stroke="black" points="0,-287 176,-287 "/>
<text text-anchor="start" x="8" y="-271.8" font-family="Times,serif" font-size="14.00">initDefaultCommand()</text>
<text text-anchor="start" x="8" y="-256.8" font-family="Times,serif" font-size="14.00">log()</text>
</g>
<!-- 8 -->
<g id="node9" class="node"><title>8</title>
<polygon fill="none" stroke="black" points="558.5,-437.5 558.5,-671.5 701.5,-671.5 701.5,-437.5 558.5,-437.5"/>
<text text-anchor="middle" x="630" y="-656.3" font-family="Times,serif" font-size="14.00">Lopez_Jr</text>
<polyline fill="none" stroke="black" points="558.5,-648.5 701.5,-648.5 "/>
<text text-anchor="start" x="566.5" y="-633.3" font-family="Times,serif" font-size="14.00">camera</text>
<text text-anchor="start" x="566.5" y="-618.3" font-family="Times,serif" font-size="14.00">derailer</text>
<text text-anchor="start" x="566.5" y="-603.3" font-family="Times,serif" font-size="14.00">drivetrain</text>
<text text-anchor="start" x="566.5" y="-588.3" font-family="Times,serif" font-size="14.00">grabber</text>
<text text-anchor="start" x="566.5" y="-573.3" font-family="Times,serif" font-size="14.00">lift</text>
<text text-anchor="start" x="566.5" y="-558.3" font-family="Times,serif" font-size="14.00">mast</text>
<text text-anchor="start" x="566.5" y="-543.3" font-family="Times,serif" font-size="14.00">oi : OI</text>
<polyline fill="none" stroke="black" points="558.5,-535.5 701.5,-535.5 "/>
<text text-anchor="start" x="566.5" y="-520.3" font-family="Times,serif" font-size="14.00">autonomous()</text>
<text text-anchor="start" x="566.5" y="-505.3" font-family="Times,serif" font-size="14.00">disabled()</text>
<text text-anchor="start" x="566.5" y="-490.3" font-family="Times,serif" font-size="14.00">log()</text>
<text text-anchor="start" x="566.5" y="-475.3" font-family="Times,serif" font-size="14.00">operatorControl()</text>
<text text-anchor="start" x="566.5" y="-460.3" font-family="Times,serif" font-size="14.00">robotInit()</text>
<text text-anchor="start" x="566.5" y="-445.3" font-family="Times,serif" font-size="14.00">test()</text>
</g>
<!-- 0&#45;&gt;8 -->
<g id="edge3" class="edge"><title>0&#45;&gt;8</title>
<path fill="none" stroke="black" d="M123.582,-333.472C140.714,-351.484 162.419,-371.69 185,-386 300.846,-459.414 453.759,-508.088 546.831,-533.212"/>
<polygon fill="black" stroke="black" points="546.842,-533.215 553.67,-530.896 558.437,-536.307 551.609,-538.626 546.842,-533.215"/>
<text text-anchor="middle" x="268" y="-407.8" font-family="Times,serif" font-size="14.00" fill="green">camera</text>
</g>
<!-- 1 -->
<g id="node2" class="node"><title>1</title>
<polygon fill="none" stroke="black" points="194,-248.5 194,-333.5 370,-333.5 370,-248.5 194,-248.5"/>
<text text-anchor="middle" x="282" y="-318.3" font-family="Times,serif" font-size="14.00">Derailer</text>
<polyline fill="none" stroke="black" points="194,-310.5 370,-310.5 "/>
<polyline fill="none" stroke="black" points="194,-286.5 370,-286.5 "/>
<text text-anchor="start" x="202" y="-271.3" font-family="Times,serif" font-size="14.00">initDefaultCommand()</text>
<text text-anchor="start" x="202" y="-256.3" font-family="Times,serif" font-size="14.00">log()</text>
</g>
<!-- 1&#45;&gt;8 -->
<g id="edge4" class="edge"><title>1&#45;&gt;8</title>
<path fill="none" stroke="black" d="M321.544,-333.508C338.572,-350.522 359.11,-369.946 379,-386 432.775,-429.404 497.776,-472.551 548.156,-504.182"/>
<polygon fill="black" stroke="black" points="548.174,-504.194 555.382,-503.98 558.352,-510.552 551.144,-510.765 548.174,-504.194"/>
<text text-anchor="middle" x="447.5" y="-407.8" font-family="Times,serif" font-size="14.00" fill="green">derailer</text>
</g>
<!-- 2 -->
<g id="node3" class="node"><title>2</title>
<polygon fill="none" stroke="black" points="869.5,-8 869.5,-137 1008.5,-137 1008.5,-8 869.5,-8"/>
<text text-anchor="middle" x="939" y="-121.8" font-family="Times,serif" font-size="14.00">DriveStraight</text>
<polyline fill="none" stroke="black" points="869.5,-114 1008.5,-114 "/>
<text text-anchor="start" x="877.5" y="-98.8" font-family="Times,serif" font-size="14.00">angle</text>
<text text-anchor="start" x="877.5" y="-83.8" font-family="Times,serif" font-size="14.00">robot</text>
<text text-anchor="start" x="877.5" y="-68.8" font-family="Times,serif" font-size="14.00">x</text>
<text text-anchor="start" x="877.5" y="-53.8" font-family="Times,serif" font-size="14.00">y</text>
<polyline fill="none" stroke="black" points="869.5,-46 1008.5,-46 "/>
<text text-anchor="start" x="877.5" y="-30.8" font-family="Times,serif" font-size="14.00">isFinished()</text>
<text text-anchor="start" x="877.5" y="-15.8" font-family="Times,serif" font-size="14.00">returnPIDInput()</text>
</g>
<!-- 3 -->
<g id="node4" class="node"><title>3</title>
<polygon fill="none" stroke="black" points="388,-219 388,-363 564,-363 564,-219 388,-219"/>
<text text-anchor="middle" x="476" y="-347.8" font-family="Times,serif" font-size="14.00">Drivetrain</text>
<polyline fill="none" stroke="black" points="388,-340 564,-340 "/>
<text text-anchor="start" x="396" y="-324.8" font-family="Times,serif" font-size="14.00">drive : RobotDrive</text>
<text text-anchor="start" x="396" y="-309.8" font-family="Times,serif" font-size="14.00">gyro : IMUSimple</text>
<text text-anchor="start" x="396" y="-294.8" font-family="Times,serif" font-size="14.00">robot</text>
<polyline fill="none" stroke="black" points="388,-287 564,-287 "/>
<text text-anchor="start" x="396" y="-271.8" font-family="Times,serif" font-size="14.00">driveJoystick()</text>
<text text-anchor="start" x="396" y="-256.8" font-family="Times,serif" font-size="14.00">driveManual()</text>
<text text-anchor="start" x="396" y="-241.8" font-family="Times,serif" font-size="14.00">initDefaultCommand()</text>
<text text-anchor="start" x="396" y="-226.8" font-family="Times,serif" font-size="14.00">log()</text>
</g>
<!-- 3&#45;&gt;8 -->
<g id="edge5" class="edge"><title>3&#45;&gt;8</title>
<path fill="none" stroke="black" d="M517.878,-363.111C529.527,-382.891 542.54,-404.989 555.462,-426.93"/>
<polygon fill="black" stroke="black" points="555.498,-426.992 561.99,-430.133 561.588,-437.333 555.096,-434.192 555.498,-426.992"/>
<text text-anchor="middle" x="585" y="-407.8" font-family="Times,serif" font-size="14.00" fill="green">drivetrain</text>
</g>
<!-- 4 -->
<g id="node5" class="node"><title>4</title>
<polygon fill="none" stroke="black" points="582.5,-211.5 582.5,-370.5 845.5,-370.5 845.5,-211.5 582.5,-211.5"/>
<text text-anchor="middle" x="714" y="-355.3" font-family="Times,serif" font-size="14.00">Grabber</text>
<polyline fill="none" stroke="black" points="582.5,-347.5 845.5,-347.5 "/>
<text text-anchor="start" x="590.5" y="-332.3" font-family="Times,serif" font-size="14.00">current : AnalogInput</text>
<text text-anchor="start" x="590.5" y="-317.3" font-family="Times,serif" font-size="14.00">grabba_pot : AnalogPotentiometer</text>
<text text-anchor="start" x="590.5" y="-302.3" font-family="Times,serif" font-size="14.00">motor : Jaguar</text>
<text text-anchor="start" x="590.5" y="-287.3" font-family="Times,serif" font-size="14.00">robot</text>
<polyline fill="none" stroke="black" points="582.5,-279.5 845.5,-279.5 "/>
<text text-anchor="start" x="590.5" y="-264.3" font-family="Times,serif" font-size="14.00">initDefaultCommand()</text>
<text text-anchor="start" x="590.5" y="-249.3" font-family="Times,serif" font-size="14.00">log()</text>
<text text-anchor="start" x="590.5" y="-234.3" font-family="Times,serif" font-size="14.00">returnPIDInput()</text>
<text text-anchor="start" x="590.5" y="-219.3" font-family="Times,serif" font-size="14.00">usePIDOutput()</text>
</g>
<!-- 4&#45;&gt;8 -->
<g id="edge6" class="edge"><title>4&#45;&gt;8</title>
<path fill="none" stroke="black" d="M688.683,-370.813C683.123,-388.124 677.096,-406.885 671.094,-425.569"/>
<polygon fill="black" stroke="black" points="671.035,-425.754 673.008,-432.69 667.365,-437.179 665.392,-430.243 671.035,-425.754"/>
<text text-anchor="middle" x="707" y="-407.8" font-family="Times,serif" font-size="14.00" fill="green">grabber</text>
</g>
<!-- 5 -->
<g id="node6" class="node"><title>5</title>
<polygon fill="none" stroke="black" points="422.5,-38 422.5,-107 529.5,-107 529.5,-38 422.5,-38"/>
<text text-anchor="middle" x="476" y="-91.8" font-family="Times,serif" font-size="14.00">GyroDummy</text>
<polyline fill="none" stroke="black" points="422.5,-84 529.5,-84 "/>
<text text-anchor="start" x="430.5" y="-68.8" font-family="Times,serif" font-size="14.00">n : int</text>
<polyline fill="none" stroke="black" points="422.5,-61 529.5,-61 "/>
<text text-anchor="start" x="430.5" y="-45.8" font-family="Times,serif" font-size="14.00">getYaw()</text>
</g>
<!-- 5&#45;&gt;3 -->
<g id="edge7" class="edge"><title>5&#45;&gt;3</title>
<path fill="none" stroke="black" d="M476,-107.328C476,-133.924 476,-172.137 476,-206.744"/>
<polygon fill="black" stroke="black" points="476,-206.81 480,-212.81 476,-218.81 472,-212.81 476,-206.81"/>
<text text-anchor="middle" x="492.5" y="-166.8" font-family="Times,serif" font-size="14.00" fill="green">gyro</text>
</g>
<!-- 6 -->
<g id="node7" class="node"><title>6</title>
<polygon fill="none" stroke="black" points="863.5,-204 863.5,-378 1096.5,-378 1096.5,-204 863.5,-204"/>
<text text-anchor="middle" x="980" y="-362.8" font-family="Times,serif" font-size="14.00">Lift</text>
<polyline fill="none" stroke="black" points="863.5,-355 1096.5,-355 "/>
<text text-anchor="start" x="871.5" y="-339.8" font-family="Times,serif" font-size="14.00">kUp : float</text>
<text text-anchor="start" x="871.5" y="-324.8" font-family="Times,serif" font-size="14.00">lift_pot : AnalogPotentiometer</text>
<text text-anchor="start" x="871.5" y="-309.8" font-family="Times,serif" font-size="14.00">motor : Jaguar</text>
<text text-anchor="start" x="871.5" y="-294.8" font-family="Times,serif" font-size="14.00">robot</text>
<polyline fill="none" stroke="black" points="863.5,-287 1096.5,-287 "/>
<text text-anchor="start" x="871.5" y="-271.8" font-family="Times,serif" font-size="14.00">initDefaultCommand()</text>
<text text-anchor="start" x="871.5" y="-256.8" font-family="Times,serif" font-size="14.00">isUp()</text>
<text text-anchor="start" x="871.5" y="-241.8" font-family="Times,serif" font-size="14.00">log()</text>
<text text-anchor="start" x="871.5" y="-226.8" font-family="Times,serif" font-size="14.00">returnPIDInput()</text>
<text text-anchor="start" x="871.5" y="-211.8" font-family="Times,serif" font-size="14.00">usePIDOutput()</text>
</g>
<!-- 6&#45;&gt;8 -->
<g id="edge8" class="edge"><title>6&#45;&gt;8</title>
<path fill="none" stroke="black" d="M864.427,-378.35C814.341,-415.771 756.885,-458.699 711.39,-492.69"/>
<polygon fill="black" stroke="black" points="711.19,-492.84 708.777,-499.635 701.576,-500.022 703.989,-493.227 711.19,-492.84"/>
<text text-anchor="middle" x="836.5" y="-407.8" font-family="Times,serif" font-size="14.00" fill="green">lift</text>
</g>
<!-- 7 -->
<g id="node8" class="node"><title>7</title>
<polygon fill="none" stroke="black" points="1349,-38 1349,-107 1537,-107 1537,-38 1349,-38"/>
<text text-anchor="middle" x="1443" y="-91.8" font-family="Times,serif" font-size="14.00">LiftGoToLevel</text>
<polyline fill="none" stroke="black" points="1349,-84 1537,-84 "/>
<text text-anchor="start" x="1357" y="-68.8" font-family="Times,serif" font-size="14.00">lift_level_setpoints : list</text>
<polyline fill="none" stroke="black" points="1349,-61 1537,-61 "/>
<text text-anchor="middle" x="1443" y="-45.8" font-family="Times,serif" font-size="14.00"> </text>
</g>
<!-- 15 -->
<g id="node16" class="node"><title>15</title>
<polygon fill="none" stroke="black" points="1380.5,-241.5 1380.5,-340.5 1505.5,-340.5 1505.5,-241.5 1380.5,-241.5"/>
<text text-anchor="middle" x="1443" y="-325.3" font-family="Times,serif" font-size="14.00">SetLiftSetpoint</text>
<polyline fill="none" stroke="black" points="1380.5,-317.5 1505.5,-317.5 "/>
<text text-anchor="start" x="1388.5" y="-302.3" font-family="Times,serif" font-size="14.00">robot</text>
<text text-anchor="start" x="1388.5" y="-287.3" font-family="Times,serif" font-size="14.00">setpoint</text>
<polyline fill="none" stroke="black" points="1380.5,-279.5 1505.5,-279.5 "/>
<text text-anchor="start" x="1388.5" y="-264.3" font-family="Times,serif" font-size="14.00">initialize()</text>
<text text-anchor="start" x="1388.5" y="-249.3" font-family="Times,serif" font-size="14.00">isFinished()</text>
</g>
<!-- 7&#45;&gt;15 -->
<g id="edge1" class="edge"><title>7&#45;&gt;15</title>
<path fill="none" stroke="black" d="M1443,-107.328C1443,-140.368 1443,-191.336 1443,-231.048"/>
<polygon fill="none" stroke="black" points="1439.5,-231.143 1443,-241.143 1446.5,-231.143 1439.5,-231.143"/>
</g>
<!-- 9 -->
<g id="node10" class="node"><title>9</title>
<polygon fill="none" stroke="black" points="1115,-196.5 1115,-385.5 1363,-385.5 1363,-196.5 1115,-196.5"/>
<text text-anchor="middle" x="1239" y="-370.3" font-family="Times,serif" font-size="14.00">Mast</text>
<polyline fill="none" stroke="black" points="1115,-362.5 1363,-362.5 "/>
<text text-anchor="start" x="1123" y="-347.3" font-family="Times,serif" font-size="14.00">kBack : float</text>
<text text-anchor="start" x="1123" y="-332.3" font-family="Times,serif" font-size="14.00">mast_pot : AnalogPotentiometer</text>
<text text-anchor="start" x="1123" y="-317.3" font-family="Times,serif" font-size="14.00">motor : Jaguar</text>
<text text-anchor="start" x="1123" y="-302.3" font-family="Times,serif" font-size="14.00">robot</text>
<polyline fill="none" stroke="black" points="1115,-294.5 1363,-294.5 "/>
<text text-anchor="start" x="1123" y="-279.3" font-family="Times,serif" font-size="14.00">initDefaultCommand()</text>
<text text-anchor="start" x="1123" y="-264.3" font-family="Times,serif" font-size="14.00">isBack()</text>
<text text-anchor="start" x="1123" y="-249.3" font-family="Times,serif" font-size="14.00">isForward()</text>
<text text-anchor="start" x="1123" y="-234.3" font-family="Times,serif" font-size="14.00">log()</text>
<text text-anchor="start" x="1123" y="-219.3" font-family="Times,serif" font-size="14.00">returnPIDInput()</text>
<text text-anchor="start" x="1123" y="-204.3" font-family="Times,serif" font-size="14.00">usePIDOutput()</text>
</g>
<!-- 9&#45;&gt;8 -->
<g id="edge9" class="edge"><title>9&#45;&gt;8</title>
<path fill="none" stroke="black" d="M1114.88,-380.727C1111.58,-382.548 1108.28,-384.309 1105,-386 974.39,-453.23 810.65,-504.355 713.506,-531.56"/>
<polygon fill="black" stroke="black" points="713.267,-531.626 708.557,-537.087 701.705,-534.839 706.415,-529.379 713.267,-531.626"/>
<text text-anchor="middle" x="1087" y="-407.8" font-family="Times,serif" font-size="14.00" fill="green">mast</text>
</g>
<!-- 10 -->
<g id="node11" class="node"><title>10</title>
<polygon fill="none" stroke="black" points="1555.5,-38 1555.5,-107 1710.5,-107 1710.5,-38 1555.5,-38"/>
<text text-anchor="middle" x="1633" y="-91.8" font-family="Times,serif" font-size="14.00">MastBack</text>
<polyline fill="none" stroke="black" points="1555.5,-84 1710.5,-84 "/>
<text text-anchor="start" x="1563.5" y="-68.8" font-family="Times,serif" font-size="14.00">kBackSetpoint : int</text>
<polyline fill="none" stroke="black" points="1555.5,-61 1710.5,-61 "/>
<text text-anchor="middle" x="1633" y="-45.8" font-family="Times,serif" font-size="14.00"> </text>
</g>
<!-- 11 -->
<g id="node12" class="node"><title>11</title>
<polygon fill="none" stroke="black" points="1729,-38 1729,-107 1921,-107 1921,-38 1729,-38"/>
<text text-anchor="middle" x="1825" y="-91.8" font-family="Times,serif" font-size="14.00">MastForward</text>
<polyline fill="none" stroke="black" points="1729,-84 1921,-84 "/>
<text text-anchor="start" x="1737" y="-68.8" font-family="Times,serif" font-size="14.00">kForwardSetpoint : float</text>
<polyline fill="none" stroke="black" points="1729,-61 1921,-61 "/>
<text text-anchor="middle" x="1825" y="-45.8" font-family="Times,serif" font-size="14.00"> </text>
</g>
<!-- 12 -->
<g id="node13" class="node"><title>12</title>
<polygon fill="none" stroke="black" points="1939.5,-15.5 1939.5,-129.5 2158.5,-129.5 2158.5,-15.5 1939.5,-15.5"/>
<text text-anchor="middle" x="2049" y="-114.3" font-family="Times,serif" font-size="14.00">MecanumDriveWithJoystick</text>
<polyline fill="none" stroke="black" points="1939.5,-106.5 2158.5,-106.5 "/>
<text text-anchor="start" x="1947.5" y="-91.3" font-family="Times,serif" font-size="14.00">robot</text>
<polyline fill="none" stroke="black" points="1939.5,-83.5 2158.5,-83.5 "/>
<text text-anchor="start" x="1947.5" y="-68.3" font-family="Times,serif" font-size="14.00">end()</text>
<text text-anchor="start" x="1947.5" y="-53.3" font-family="Times,serif" font-size="14.00">execute()</text>
<text text-anchor="start" x="1947.5" y="-38.3" font-family="Times,serif" font-size="14.00">interrupted()</text>
<text text-anchor="start" x="1947.5" y="-23.3" font-family="Times,serif" font-size="14.00">isFinished()</text>
</g>
<!-- 13 -->
<g id="node14" class="node"><title>13</title>
<polygon fill="none" stroke="black" points="2176.5,-30.5 2176.5,-114.5 2345.5,-114.5 2345.5,-30.5 2176.5,-30.5"/>
<text text-anchor="middle" x="2261" y="-99.3" font-family="Times,serif" font-size="14.00">OpenGrabba</text>
<polyline fill="none" stroke="black" points="2176.5,-91.5 2345.5,-91.5 "/>
<text text-anchor="start" x="2184.5" y="-76.3" font-family="Times,serif" font-size="14.00">kOpenSetpoint : float</text>
<text text-anchor="start" x="2184.5" y="-61.3" font-family="Times,serif" font-size="14.00">kStallPoint : float</text>
<polyline fill="none" stroke="black" points="2176.5,-53.5 2345.5,-53.5 "/>
<text text-anchor="start" x="2184.5" y="-38.3" font-family="Times,serif" font-size="14.00">isFinished()</text>
</g>
<!-- 14 -->
<g id="node15" class="node"><title>14</title>
<polygon fill="none" stroke="black" points="2185,-219 2185,-363 2337,-363 2337,-219 2185,-219"/>
<text text-anchor="middle" x="2261" y="-347.8" font-family="Times,serif" font-size="14.00">SetGrabbaSetpoint</text>
<polyline fill="none" stroke="black" points="2185,-340 2337,-340 "/>
<text text-anchor="start" x="2193" y="-324.8" font-family="Times,serif" font-size="14.00">robot</text>
<text text-anchor="start" x="2193" y="-309.8" font-family="Times,serif" font-size="14.00">setpoint</text>
<polyline fill="none" stroke="black" points="2185,-302 2337,-302 "/>
<text text-anchor="start" x="2193" y="-286.8" font-family="Times,serif" font-size="14.00">end()</text>
<text text-anchor="start" x="2193" y="-271.8" font-family="Times,serif" font-size="14.00">execute()</text>
<text text-anchor="start" x="2193" y="-256.8" font-family="Times,serif" font-size="14.00">initialize()</text>
<text text-anchor="start" x="2193" y="-241.8" font-family="Times,serif" font-size="14.00">interrupted()</text>
<text text-anchor="start" x="2193" y="-226.8" font-family="Times,serif" font-size="14.00">isFinished()</text>
</g>
<!-- 13&#45;&gt;14 -->
<g id="edge2" class="edge"><title>13&#45;&gt;14</title>
<path fill="none" stroke="black" d="M2261,-114.732C2261,-141.19 2261,-176.455 2261,-208.414"/>
<polygon fill="none" stroke="black" points="2257.5,-208.659 2261,-218.659 2264.5,-208.659 2257.5,-208.659"/>
</g>
<!-- 16 -->
<g id="node17" class="node"><title>16</title>
<polygon fill="none" stroke="black" points="2363.5,-0.5 2363.5,-144.5 2500.5,-144.5 2500.5,-0.5 2363.5,-0.5"/>
<text text-anchor="middle" x="2432" y="-129.3" font-family="Times,serif" font-size="14.00">SetMastSetpoint</text>
<polyline fill="none" stroke="black" points="2363.5,-121.5 2500.5,-121.5 "/>
<text text-anchor="start" x="2371.5" y="-106.3" font-family="Times,serif" font-size="14.00">robot</text>
<text text-anchor="start" x="2371.5" y="-91.3" font-family="Times,serif" font-size="14.00">setpoint</text>
<polyline fill="none" stroke="black" points="2363.5,-83.5 2500.5,-83.5 "/>
<text text-anchor="start" x="2371.5" y="-68.3" font-family="Times,serif" font-size="14.00">end()</text>
<text text-anchor="start" x="2371.5" y="-53.3" font-family="Times,serif" font-size="14.00">execute()</text>
<text text-anchor="start" x="2371.5" y="-38.3" font-family="Times,serif" font-size="14.00">initialize()</text>
<text text-anchor="start" x="2371.5" y="-23.3" font-family="Times,serif" font-size="14.00">interrupted()</text>
<text text-anchor="start" x="2371.5" y="-8.3" font-family="Times,serif" font-size="14.00">isFinished()</text>
</g>
</g>
</svg>
