<?xml version="1.0" encoding="UTF-8" standalone="no"?>
<!DOCTYPE svg PUBLIC "-//W3C//DTD SVG 1.1//EN"
 "http://www.w3.org/Graphics/SVG/1.1/DTD/svg11.dtd">
<!-- Generated by graphviz version 2.38.0 (20140413.2041)
 -->
<!-- Title: packages_No_Name Pages: 1 -->
<svg width="2183pt" height="188pt"
 viewBox="0.00 0.00 2182.50 188.00" xmlns="http://www.w3.org/2000/svg" xmlns:xlink="http://www.w3.org/1999/xlink">
<g id="graph0" class="graph" transform="scale(1 1) rotate(0) translate(4 184)">
<title>packages_No_Name</title>
<polygon fill="white" stroke="none" points="-4,4 -4,-184 2178.5,-184 2178.5,4 -4,4"/>
<!-- 0 -->
<g id="node1" class="node"><title>0</title>
<polygon fill="none" stroke="black" points="94,-36 -7.10543e-15,-36 -7.10543e-15,-0 94,-0 94,-36"/>
<text text-anchor="middle" x="47" y="-14.3" font-family="Times,serif" font-size="14.00">commands</text>
</g>
<!-- 1 -->
<g id="node2" class="node"><title>1</title>
<polygon fill="none" stroke="black" points="312,-36 112,-36 112,-0 312,-0 312,-36"/>
<text text-anchor="middle" x="212" y="-14.3" font-family="Times,serif" font-size="14.00">commands.drive_straight</text>
</g>
<!-- 2 -->
<g id="node3" class="node"><title>2</title>
<polygon fill="none" stroke="black" points="536,-36 330,-36 330,-0 536,-0 536,-36"/>
<text text-anchor="middle" x="433" y="-14.3" font-family="Times,serif" font-size="14.00">commands.lift_go_to_level</text>
</g>
<!-- 8 -->
<g id="node9" class="node"><title>8</title>
<polygon fill="none" stroke="black" points="540,-108 326,-108 326,-72 540,-72 540,-108"/>
<text text-anchor="middle" x="433" y="-86.3" font-family="Times,serif" font-size="14.00">commands.set_lift_setpoint</text>
</g>
<!-- 2&#45;&gt;8 -->
<g id="edge1" class="edge"><title>2&#45;&gt;8</title>
<path fill="none" stroke="black" d="M433,-36.3034C433,-44.0173 433,-53.2875 433,-61.8876"/>
<polygon fill="black" stroke="black" points="433,-71.8957 428.5,-61.8956 433,-66.8957 433,-61.8957 433,-61.8957 433,-61.8957 433,-66.8957 437.5,-61.8957 433,-71.8957 433,-71.8957"/>
</g>
<!-- 3 -->
<g id="node4" class="node"><title>3</title>
<polygon fill="none" stroke="black" points="746,-36 570,-36 570,-0 746,-0 746,-36"/>
<text text-anchor="middle" x="658" y="-14.3" font-family="Times,serif" font-size="14.00">commands.mast_back</text>
</g>
<!-- 9 -->
<g id="node10" class="node"><title>9</title>
<polygon fill="none" stroke="black" points="787.5,-108 558.5,-108 558.5,-72 787.5,-72 787.5,-108"/>
<text text-anchor="middle" x="673" y="-86.3" font-family="Times,serif" font-size="14.00">commands.set_mast_setpoint</text>
</g>
<!-- 3&#45;&gt;9 -->
<g id="edge2" class="edge"><title>3&#45;&gt;9</title>
<path fill="none" stroke="black" d="M661.708,-36.3034C663.361,-44.0173 665.347,-53.2875 667.19,-61.8876"/>
<polygon fill="black" stroke="black" points="669.335,-71.8957 662.839,-63.0606 668.287,-67.0067 667.239,-62.1176 667.239,-62.1176 667.239,-62.1176 668.287,-67.0067 671.64,-61.1747 669.335,-71.8957 669.335,-71.8957"/>
</g>
<!-- 4 -->
<g id="node5" class="node"><title>4</title>
<polygon fill="none" stroke="black" points="961.5,-36 764.5,-36 764.5,-0 961.5,-0 961.5,-36"/>
<text text-anchor="middle" x="863" y="-14.3" font-family="Times,serif" font-size="14.00">commands.mast_forward</text>
</g>
<!-- 4&#45;&gt;9 -->
<g id="edge3" class="edge"><title>4&#45;&gt;9</title>
<path fill="none" stroke="black" d="M816.521,-36.1239C790.085,-45.8635 756.797,-58.1275 728.936,-68.3919"/>
<polygon fill="black" stroke="black" points="719.328,-71.9317 727.156,-64.252 724.02,-70.2031 728.712,-68.4746 728.712,-68.4746 728.712,-68.4746 724.02,-70.2031 730.267,-72.6971 719.328,-71.9317 719.328,-71.9317"/>
</g>
<!-- 5 -->
<g id="node6" class="node"><title>5</title>
<polygon fill="none" stroke="black" points="1407.5,-180 1092.5,-180 1092.5,-144 1407.5,-144 1407.5,-180"/>
<text text-anchor="middle" x="1250" y="-158.3" font-family="Times,serif" font-size="14.00">commands.mecanum_drive_with_joystick</text>
</g>
<!-- 6 -->
<g id="node7" class="node"><title>6</title>
<polygon fill="none" stroke="black" points="2055.5,-36 1864.5,-36 1864.5,-0 2055.5,-0 2055.5,-36"/>
<text text-anchor="middle" x="1960" y="-14.3" font-family="Times,serif" font-size="14.00">commands.open_grabba</text>
</g>
<!-- 7 -->
<g id="node8" class="node"><title>7</title>
<polygon fill="none" stroke="black" points="2082,-108 1838,-108 1838,-72 2082,-72 2082,-108"/>
<text text-anchor="middle" x="1960" y="-86.3" font-family="Times,serif" font-size="14.00">commands.set_grabba_setpoint</text>
</g>
<!-- 6&#45;&gt;7 -->
<g id="edge4" class="edge"><title>6&#45;&gt;7</title>
<path fill="none" stroke="black" d="M1960,-36.3034C1960,-44.0173 1960,-53.2875 1960,-61.8876"/>
<polygon fill="black" stroke="black" points="1960,-71.8957 1955.5,-61.8956 1960,-66.8957 1960,-61.8957 1960,-61.8957 1960,-61.8957 1960,-66.8957 1964.5,-61.8957 1960,-71.8957 1960,-71.8957"/>
</g>
<!-- 10 -->
<g id="node11" class="node"><title>10</title>
<polygon fill="none" stroke="black" points="1371.5,-36 1316.5,-36 1316.5,-0 1371.5,-0 1371.5,-36"/>
<text text-anchor="middle" x="1344" y="-14.3" font-family="Times,serif" font-size="14.00">robot</text>
</g>
<!-- 12 -->
<g id="node13" class="node"><title>12</title>
<polygon fill="none" stroke="black" points="964,-108 806,-108 806,-72 964,-72 964,-108"/>
<text text-anchor="middle" x="885" y="-86.3" font-family="Times,serif" font-size="14.00">subsystems.camera</text>
</g>
<!-- 10&#45;&gt;12 -->
<g id="edge5" class="edge"><title>10&#45;&gt;12</title>
<path fill="none" stroke="black" d="M1316.08,-22.5483C1254.3,-30.4999 1101.37,-50.7248 974,-72 973.898,-72.017 973.796,-72.034 973.694,-72.0511"/>
<polygon fill="black" stroke="black" points="964.065,-73.7003 973.161,-67.5768 968.993,-72.8562 973.921,-72.0122 973.921,-72.0122 973.921,-72.0122 968.993,-72.8562 974.681,-76.4476 964.065,-73.7003 964.065,-73.7003"/>
</g>
<!-- 13 -->
<g id="node14" class="node"><title>13</title>
<polygon fill="none" stroke="black" points="1143.5,-108 982.5,-108 982.5,-72 1143.5,-72 1143.5,-108"/>
<text text-anchor="middle" x="1063" y="-86.3" font-family="Times,serif" font-size="14.00">subsystems.derailer</text>
</g>
<!-- 10&#45;&gt;13 -->
<g id="edge6" class="edge"><title>10&#45;&gt;13</title>
<path fill="none" stroke="black" d="M1316.29,-25.9034C1275.97,-35.946 1199.6,-54.971 1141.22,-69.5149"/>
<polygon fill="black" stroke="black" points="1131.28,-71.9914 1139.89,-65.2076 1136.13,-70.7828 1140.98,-69.5741 1140.98,-69.5741 1140.98,-69.5741 1136.13,-70.7828 1142.07,-73.9407 1131.28,-71.9914 1131.28,-71.9914"/>
</g>
<!-- 14 -->
<g id="node15" class="node"><title>14</title>
<polygon fill="none" stroke="black" points="1338,-108 1162,-108 1162,-72 1338,-72 1338,-108"/>
<text text-anchor="middle" x="1250" y="-86.3" font-family="Times,serif" font-size="14.00">subsystems.drivetrain</text>
</g>
<!-- 10&#45;&gt;14 -->
<g id="edge7" class="edge"><title>10&#45;&gt;14</title>
<path fill="none" stroke="black" d="M1320.76,-36.3034C1308.81,-45.204 1294.08,-56.1768 1281.15,-65.8011"/>
<polygon fill="black" stroke="black" points="1272.97,-71.8957 1278.3,-62.3138 1276.98,-68.9093 1280.99,-65.923 1280.99,-65.923 1280.99,-65.923 1276.98,-68.9093 1283.68,-69.5322 1272.97,-71.8957 1272.97,-71.8957"/>
</g>
<!-- 15 -->
<g id="node16" class="node"><title>15</title>
<polygon fill="none" stroke="black" points="1518,-108 1356,-108 1356,-72 1518,-72 1518,-108"/>
<text text-anchor="middle" x="1437" y="-86.3" font-family="Times,serif" font-size="14.00">subsystems.grabber</text>
</g>
<!-- 10&#45;&gt;15 -->
<g id="edge8" class="edge"><title>10&#45;&gt;15</title>
<path fill="none" stroke="black" d="M1366.99,-36.3034C1378.81,-45.204 1393.39,-56.1768 1406.18,-65.8011"/>
<polygon fill="black" stroke="black" points="1414.28,-71.8957 1403.58,-69.4773 1410.28,-68.8888 1406.29,-65.8819 1406.29,-65.8819 1406.29,-65.8819 1410.28,-68.8888 1408.99,-62.2865 1414.28,-71.8957 1414.28,-71.8957"/>
</g>
<!-- 16 -->
<g id="node17" class="node"><title>16</title>
<polygon fill="none" stroke="black" points="1661.5,-108 1536.5,-108 1536.5,-72 1661.5,-72 1661.5,-108"/>
<text text-anchor="middle" x="1599" y="-86.3" font-family="Times,serif" font-size="14.00">subsystems.lift</text>
</g>
<!-- 10&#45;&gt;16 -->
<g id="edge9" class="edge"><title>10&#45;&gt;16</title>
<path fill="none" stroke="black" d="M1371.77,-26.6245C1408.76,-36.7776 1475.51,-55.1022 1527.13,-69.2722"/>
<polygon fill="black" stroke="black" points="1536.91,-71.9568 1526.08,-73.6491 1532.09,-70.6332 1527.27,-69.3096 1527.27,-69.3096 1527.27,-69.3096 1532.09,-70.6332 1528.46,-64.9701 1536.91,-71.9568 1536.91,-71.9568"/>
</g>
<!-- 17 -->
<g id="node18" class="node"><title>17</title>
<polygon fill="none" stroke="black" points="1820,-108 1680,-108 1680,-72 1820,-72 1820,-108"/>
<text text-anchor="middle" x="1750" y="-86.3" font-family="Times,serif" font-size="14.00">subsystems.mast</text>
</g>
<!-- 10&#45;&gt;17 -->
<g id="edge10" class="edge"><title>10&#45;&gt;17</title>
<path fill="none" stroke="black" d="M1371.64,-22.9914C1426.47,-31.0124 1553.07,-50.0528 1669.66,-71.7962"/>
<polygon fill="black" stroke="black" points="1679.83,-73.7041 1669.17,-76.2824 1674.91,-72.7819 1670,-71.8596 1670,-71.8596 1670,-71.8596 1674.91,-72.7819 1670.83,-67.4368 1679.83,-73.7041 1679.83,-73.7041"/>
</g>
<!-- 11 -->
<g id="node12" class="node"><title>11</title>
<polygon fill="none" stroke="black" points="2174.5,-36 2073.5,-36 2073.5,-0 2174.5,-0 2174.5,-36"/>
<text text-anchor="middle" x="2124" y="-14.3" font-family="Times,serif" font-size="14.00">subsystems</text>
</g>
<!-- 14&#45;&gt;5 -->
<g id="edge11" class="edge"><title>14&#45;&gt;5</title>
<path fill="none" stroke="black" d="M1250,-108.303C1250,-116.017 1250,-125.288 1250,-133.888"/>
<polygon fill="black" stroke="black" points="1250,-143.896 1245.5,-133.896 1250,-138.896 1250,-133.896 1250,-133.896 1250,-133.896 1250,-138.896 1254.5,-133.896 1250,-143.896 1250,-143.896"/>
</g>
</g>
</svg>
